# xmcd
#
# Track frame offsets:
#	150
#	14283
#	25219
#	35046
#	43670
#	52897
#	62722
#	74175
#	86657
#	99361
#	112459
#	125242
#	135403
#	147954
#	161496
#	176148
#	187617
#	198473
#	207854
#	220683
#	234312
#	247763
#	260578
#	272316
#	284275
#	298323
#	309984
#	321289
#	331586
#	342819
#
# Disc length: 4737 seconds
#
# Revision: 0
# Processed by: cddbd v1.5.2PL0 Copyright (c) Steve Scherf et al.
# Submitted via: audiograbber 1.83.01
#
DISCID=c1127f1e
DTITLE=—борник - Ponytails, Hooped Skirts and Bobbysox: Americans Gals Of The '50
DTITLE=s CD2
DYEAR=1900
DGENRE=
TTITLE0=Ella Mae Morse - The Blacksmith Blues
TTITLE1=The Chordettes - Mr. Sandman
TTITLE2=The McGuire Sisters - No More
TTITLE3=The Fontane Sisters - Rock Love
TTITLE4=Brenda Lee - Dynamite
TTITLE5=Teresa Brewer - Jilted
TTITLE6=Georgia Gibbs - Tweedle Dee
TTITLE7=Eydie Gorme - Love Me Forever
TTITLE8=Patti Page - You Belong To Me 
TTITLE9=The McGuire Sisters - Goodnight, Sweetheart, Goodnight
TTITLE10=Teresa Brewer - Empty Arms
TTITLE11=Gale Storm - Teen Age Prayer
TTITLE12=Jo Stafford - It's Almost Tomorrow
TTITLE13=Doris Day - The Black Hills Of Dakota
TTITLE14=Patti Page - I Went To Your Wedding
TTITLE15=Rosemary Clooney - Man (Uh Huh) [With Jose Ferrer]
TTITLE16=Kay Starr - Comes A-Long A-Love
TTITLE17=The Fontane Sisters - Seventeen
TTITLE18=Keely Smith - Autumn Leaves
TTITLE19=Rosemary Clooney - Hey There
TTITLE20=Joni James - Have You Heard?
TTITLE21=Jo Stafford - (Now And Then There's) A Fool Such As I
TTITLE22=Jill Corey - Let It Be Me
TTITLE23=The Fontane Sisters - Voices [Narration Pat Boone]
TTITLE24=Peggy King - Make Yourself Comfortable
TTITLE25=Teresa Brewer - Bell Bottom Blues
TTITLE26=Georgia Gibbs - I Want You To Be My Baby
TTITLE27=Rosemary Clooney - Botch-A-Me (Ba-Ba-Baciami Piccina)
TTITLE28=Toni Arden - Kiss Of Fire
TTITLE29=Eartha Kitt - The Heel
EXTD=
EXTT0=
EXTT1=
EXTT2=
EXTT3=
EXTT4=
EXTT5=
EXTT6=
EXTT7=
EXTT8=
EXTT9=
EXTT10=
EXTT11=
EXTT12=
EXTT13=
EXTT14=
EXTT15=
EXTT16=
EXTT17=
EXTT18=
EXTT19=
EXTT20=
EXTT21=
EXTT22=
EXTT23=
EXTT24=
EXTT25=
EXTT26=
EXTT27=
EXTT28=
EXTT29=
PLAYORDER=
